<svg width="25" height="14" viewBox="0 0 25 14" fill="none" xmlns="http://www.w3.org/2000/svg">
<path d="M14.2641 7C14.2695 8.8493 13.5408 10.6252 12.238 11.9376C10.9352 13.2501 9.1647 13.9918 7.31541 14C5.46612 13.9918 3.69565 13.2501 2.39282 11.9376C1.08998 10.6252 0.361273 8.8493 0.36673 7C0.361273 5.1507 1.08998 3.37483 2.39282 2.06236C3.69565 0.749902 5.46612 0.00815067 7.31541 0C9.1647 0.00815067 10.9352 0.749902 12.238 2.06236C13.5408 3.37483 14.2695 5.1507 14.2641 7ZM21.8799 7C21.8799 10.6334 20.3301 13.5894 18.4107 13.5894C16.4914 13.5894 14.9312 10.6334 14.9312 7C14.9312 3.36657 16.4914 0.410557 18.4107 0.410557C20.3301 0.410557 21.8799 3.36657 21.8799 7ZM25.0002 7C25.0002 10.2537 24.4562 12.9018 23.7788 12.9018C23.1013 12.9018 22.5573 10.2537 22.5573 7C22.5573 3.74633 23.1013 1.09824 23.7788 1.09824C24.4562 1.09824 25.0002 3.74633 25.0002 7Z" fill="white"/>
</svg>
